<svg height="512" viewBox="0 0 512 512" width="512" xmlns="http://www.w3.org/2000/svg"><g id="Solid"><path d="m184 252.944-16-8v150.112l16-8z"/><path d="m206.266 222.42-8.458-16.915-24.303 24.303 16.915 8.458z"/><path d="m291.056 216 8-16h-86.112l8 16z"/><path d="m219.313 232-19.313 19.314v137.372l19.313 19.314h73.374l19.313-19.314v-137.372l-19.313-19.314z"/><path d="m280 128a24 24 0 0 0 -48 0v24h48zm-16 8h-16v-16h16z"/><path d="m338.495 229.808-24.303-24.303-8.458 16.915 15.846 15.846z"/><path d="m173.505 410.192 24.303 24.303 8.458-16.915-15.846-15.846z"/><path d="m324.687 168h-137.374l-51.313 51.314v201.372l51.313 51.314h137.374l51.313-51.314v-201.372zm35.313 240a8 8 0 0 1 -2.343 5.657l-40 40a8 8 0 0 1 -5.657 2.343h-112a8 8 0 0 1 -5.657-2.343l-40-40a8 8 0 0 1 -2.343-5.657v-176a8 8 0 0 1 2.343-5.657l40-40a8 8 0 0 1 5.657-2.343h112a8 8 0 0 1 5.657 2.343l40 40a8 8 0 0 1 2.343 5.657z"/><path d="m220.944 424-8 16h86.112l-8-16z"/><path d="m328 387.056 16 8v-150.112l-16 8z"/><path d="m305.734 417.58 8.458 16.915 24.303-24.303-16.915-8.458z"/><circle cx="312" cy="80" r="21.664"/><circle cx="352" cy="40" r="21.664"/><circle cx="200" cy="80" r="21.664"/><circle cx="160" cy="40" r="21.664"/></g></svg>