<svg id="Capa_1" enable-background="new 0 0 512 512" height="512" viewBox="0 0 512 512" width="512" xmlns="http://www.w3.org/2000/svg"><g><path d="m468.936 86.057c-10.562 0-20.328 5.042-26.452 13.415h-76.674v-5.915c0-4.143-3.357-7.5-7.5-7.5s-7.5 3.357-7.5 7.5v5.915h-29.415v-5.915c0-4.143-3.357-7.5-7.5-7.5s-7.5 3.357-7.5 7.5v5.915h-29.415v-5.915c0-4.143-3.357-7.5-7.5-7.5s-7.5 3.357-7.5 7.5v5.915h-20.088l56.069-56.068c.64-.641 1.159-1.392 1.532-2.218l13.815-30.6c1.283-2.843.673-6.184-1.532-8.39-2.206-2.204-5.547-2.815-8.39-1.532l-30.6 13.815c-.826.373-1.577.893-2.218 1.533l-15.979 15.98c-2.929 2.929-2.929 7.678 0 10.606 2.928 2.928 7.677 2.929 10.607-.001l15.011-15.012 11.262-5.084-5.084 11.262c-4.777 4.777-139.125 139.125-144.887 144.887l-6.177-6.177 108.654-108.653c2.929-2.93 2.929-7.678 0-10.607-2.929-2.928-7.678-2.928-10.606 0l-46.259 46.259h-59.272c-.906 0-1.804.164-2.651.484l-31.407 11.868c-2.918 1.103-4.849 3.896-4.849 7.016s1.931 5.913 4.849 7.016l31.406 11.867c.847.32 1.745.484 2.651.484h20.537l-23.661 23.661-5.342-5.342c-2.929-2.928-7.678-2.928-10.606 0-2.929 2.93-2.929 7.678 0 10.607l5.342 5.342-20.799 20.799-5.342-5.342c-2.929-2.928-7.678-2.928-10.606 0-2.929 2.93-2.929 7.678 0 10.607l5.342 5.342-34.62 34.62c-10.25-1.585-20.723 1.751-28.19 9.218-12.81 12.81-12.816 33.549 0 46.362 12.81 12.812 33.547 12.816 46.363.001 7.468-7.468 10.809-17.939 9.219-28.19l13.46-13.46v100.592c0 4.143 3.358 7.5 7.5 7.5s7.5-3.357 7.5-7.5v-45.199c5.056 1.718 8.558 5.239 12.897 9.621 6.711 6.775 15.064 15.208 31.055 15.208s24.344-8.433 31.055-15.208c6.19-6.249 10.662-10.765 20.398-10.765 20.91 0 22.451 25.973 51.456 25.973 15.991 0 24.344-8.433 31.055-15.208 6.19-6.249 10.663-10.765 20.398-10.765 20.911 0 22.455 25.973 51.461 25.973 25.264 0 30.51-20.261 43.961-24.83v96.222c-23.076 4.375-24.386 25.276-43.961 25.276-20.911 0-22.455-25.973-51.461-25.973-15.991 0-24.344 8.433-31.055 15.208-6.19 6.249-10.663 10.765-20.398 10.765-20.91 0-22.451-25.973-51.456-25.973-15.991 0-24.344 8.433-31.055 15.208-6.19 6.249-10.662 10.765-20.398 10.765-19.475 0-21.079-20.939-43.952-25.276v-21.067c0-4.143-3.358-7.5-7.5-7.5s-7.5 3.357-7.5 7.5v65.707c0 16.884 13.736 30.62 30.62 30.62h4.895v25.194c0 4.143 3.358 7.5 7.5 7.5s7.5-3.357 7.5-7.5v-25.194h44.427v25.194c0 4.143 3.358 7.5 7.5 7.5s7.5-3.357 7.5-7.5v-25.194h44.424v25.194c0 4.143 3.358 7.5 7.5 7.5s7.5-3.357 7.5-7.5v-25.194h44.427v25.194c0 4.143 3.357 7.5 7.5 7.5s7.5-3.357 7.5-7.5v-25.194h44.427v25.194c0 4.143 3.357 7.5 7.5 7.5s7.5-3.357 7.5-7.5v-25.194h4.895c16.884 0 30.62-13.736 30.62-30.62v-310.479h29.816c6.124 8.373 15.892 13.416 26.452 13.416 1.428 0 2.902-.101 4.385-.299 4.105-.549 6.988-4.321 6.439-8.428-.549-4.105-4.328-6.991-8.428-6.439-.837.111-1.621.166-2.396.166-6.586 0-12.604-3.618-15.707-9.442-1.303-2.445-3.848-3.974-6.619-3.974-.137 0-80.678-.055-80.8-.055v-8.68h80.8c2.771 0 5.316-1.528 6.619-3.974 3.103-5.823 9.121-9.441 15.707-9.441 9.807 0 17.784 7.978 17.784 17.783 0 .975-.086 1.977-.254 2.979-.688 4.085 2.066 7.953 6.15 8.641.422.071.841.105 1.254.105 3.595 0 6.771-2.593 7.387-6.256.308-1.823.463-3.663.463-5.47-.001-18.076-14.708-32.782-32.785-32.782zm-339.729 37.15-11.559-4.367 11.559-4.368h42.902l-8.735 8.735zm177.188-8.735v8.597l-29.415-.041v-8.556zm-44.415 0v8.534l-43.561-.061 8.473-8.473zm-137.266 68.61 6.177 6.177-20.799 20.799-6.177-6.177zm-62.767 75.12c-1.959 1.96-2.679 4.84-1.871 7.49 1.924 6.313.226 13.126-4.431 17.783-6.951 6.95-18.197 6.952-25.149-.001-6.95-6.949-6.951-18.198 0-25.149 4.656-4.656 11.469-6.357 17.782-4.43 2.651.808 5.531.088 7.49-1.87l37.538-37.538 6.177 6.177zm291.759 59.451c-20.911 0-22.455-25.973-51.461-25.973-15.991 0-24.344 8.433-31.055 15.208-6.19 6.249-10.663 10.765-20.398 10.765-20.91 0-22.451-25.973-51.456-25.973-15.991 0-24.344 8.433-31.055 15.208-6.19 6.249-10.662 10.765-20.398 10.765-9.735 0-14.208-4.515-20.397-10.765-5.572-5.625-12.29-12.375-23.555-14.512v-54.946l6.334-6.333c2.944 1.735 6.677 1.276 9.106-1.152 2.47-2.471 2.849-6.23 1.153-9.106l3.018-3.018c5.813 4.827 13.232 8.887 24.342 8.887 15.991 0 24.344-8.433 31.055-15.208 6.19-6.25 10.662-10.765 20.398-10.765 20.91 0 22.451 25.973 51.456 25.973 15.991 0 24.344-8.433 31.055-15.208 6.19-6.25 10.663-10.765 20.398-10.765 20.911 0 22.455 25.973 51.461 25.973 25.264 0 30.51-20.261 43.961-24.83v90.499c-23.077 4.375-24.387 25.276-43.962 25.276zm28.341 146.653h-262.495c-8.613 0-15.62-7.007-15.62-15.62v-29.192c13.432 4.565 18.714 24.829 43.952 24.829 15.991 0 24.344-8.433 31.055-15.208 6.19-6.249 10.662-10.765 20.398-10.765 20.91 0 22.451 25.973 51.456 25.973 15.991 0 24.344-8.433 31.055-15.208 6.19-6.249 10.663-10.765 20.398-10.765 20.911 0 22.455 25.973 51.461 25.973 25.264 0 30.51-20.261 43.961-24.83v29.193c-.001 8.613-7.008 15.62-15.621 15.62zm15.62-277.874c-23.076 4.375-24.386 25.276-43.961 25.276-20.911 0-22.455-25.973-51.461-25.973-15.991 0-24.344 8.433-31.055 15.208-6.19 6.25-10.663 10.765-20.398 10.765-20.91 0-22.451-25.973-51.456-25.973-15.991 0-24.344 8.433-31.055 15.208-6.19 6.25-10.662 10.765-20.398 10.765-6.041 0-10.053-1.747-13.689-4.54l7.477-7.477c2.943 1.735 6.676 1.277 9.106-1.152 2.47-2.471 2.849-6.23 1.153-9.106l51.226-51.226h58.824v1.921c0 4.143 3.357 7.5 7.5 7.5s7.5-3.357 7.5-7.5v-1.921h29.415v1.921c0 4.143 3.357 7.5 7.5 7.5s7.5-3.357 7.5-7.5v-1.921h29.415v1.921c0 4.143 3.357 7.5 7.5 7.5s7.5-3.357 7.5-7.5v-1.921h31.857zm-46.857-63.301-29.415-.042v-8.618h29.415z"/></g></svg>