<?xml version="1.0"?>
<svg xmlns="http://www.w3.org/2000/svg" viewBox="0 0 512 512" width="512" height="512"><g id="Icons_copy" data-name="Icons copy"><path d="M456,422V392.356l8.175-.942a31.576,31.576,0,1,0-8.346-62.587L58.919,388.98A63.722,63.722,0,0,0,17.646,413.4a8,8,0,0,0,1.495,11.213,63.668,63.668,0,0,0,38.807,13.176,64.542,64.542,0,0,0,7.421-.428L440,394.2V422a26.029,26.029,0,0,1-26,26H200a24,24,0,0,0,0,48H320V480H200a8,8,0,0,1,0-16H414A42.047,42.047,0,0,0,456,422Zm-392.462-.537a47.8,47.8,0,0,1-27.2-4.854A47.779,47.779,0,0,1,61.316,404.8l396.911-60.154a15.576,15.576,0,1,1,4.117,30.873l-6.344.73V360H440v18.094Z"/><rect x="336" y="480" width="16" height="16"/><path d="M344.438,319.77A151.968,151.968,0,0,0,488,168c0-83.813-68.187-152-152-152A152.231,152.231,0,0,0,222.706,66.665l11.922,10.67A136.214,136.214,0,0,1,336,32c74.99,0,136,61.01,136,136A135.962,135.962,0,0,1,343.562,303.793Z"/><path d="M353.221,278.683A112.009,112.009,0,1,0,275.687,73.612l8.626,13.475A96.01,96.01,0,1,1,350.779,262.87Z"/><path d="M336,96a24,24,0,1,0,24,24A24.028,24.028,0,0,0,336,96Zm0,32a8,8,0,1,1,8-8A8.009,8.009,0,0,1,336,128Z"/><path d="M384,192a24,24,0,1,0-24-24A24.028,24.028,0,0,0,384,192Zm0-32a8,8,0,1,1-8,8A8.009,8.009,0,0,1,384,160Z"/><path d="M28.465,266.319c3.415,4.771,6.639,9.278,7.713,13.29,1.153,4.317.612,10.019.039,16.055-.858,9.032-1.829,19.269,3.14,27.858,5.042,8.714,14.473,13,22.793,16.785,5.453,2.478,10.6,4.819,13.662,7.881s5.4,8.209,7.881,13.661c.944,2.074,1.918,4.219,2.97,6.322l14.311-7.154c-.919-1.839-1.791-3.758-2.715-5.789-2.96-6.51-6.02-13.242-11.133-18.355S75.282,328.7,68.772,325.741c-6.731-3.06-13.089-5.951-15.566-10.231-2.406-4.16-1.753-11.045-1.06-18.333.68-7.18,1.385-14.6-.511-21.7-1.825-6.827-6.062-12.746-10.158-18.47C37.117,250.917,33,245.164,33,240s4.117-10.917,8.476-17.007c4.1-5.724,8.334-11.644,10.159-18.472,1.9-7.094,1.191-14.518.511-21.7-.693-7.289-1.346-14.174,1.061-18.334,2.477-4.281,8.835-7.172,15.566-10.231,6.51-2.96,13.242-6.02,18.354-11.133s8.172-11.844,11.132-18.354c3.06-6.731,5.951-13.089,10.231-15.566,4.16-2.407,11.045-1.754,18.333-1.06,7.179.679,14.6,1.385,21.7-.511,6.827-1.825,12.746-6.062,18.47-10.158C173.083,93.117,178.836,89,184,89s10.917,4.117,17.007,8.476c5.724,4.1,11.644,8.334,18.472,10.159,7.093,1.895,14.516,1.192,21.7.511,7.289-.691,14.174-1.345,18.334,1.061,4.281,2.477,7.172,8.835,10.231,15.566,2.96,6.51,6.02,13.242,11.133,18.354s11.844,8.173,18.354,11.132c6.731,3.06,13.089,5.951,15.566,10.231,2.406,4.16,1.753,11.045,1.06,18.333-.68,7.18-1.385,14.6.511,21.7,1.825,6.827,6.062,12.746,10.158,18.47C330.883,229.083,335,234.836,335,240s-4.117,10.917-8.476,17.007c-4.1,5.724-8.334,11.644-10.159,18.472-1.9,7.094-1.191,14.518-.511,21.7.693,7.289,1.346,14.174-1.061,18.334-2.477,4.281-8.834,7.172-15.565,10.231a96.52,96.52,0,0,0-12.2,6.265l8.631,13.473a83.621,83.621,0,0,1,10.192-5.172c8.32-3.783,17.751-8.071,22.793-16.785,4.969-8.589,4-18.827,3.14-27.859-.573-6.036-1.114-11.737.039-16.053,1.074-4.014,4.3-8.52,7.713-13.292C344.909,258.811,351,250.3,351,240s-6.091-18.811-11.465-26.319c-3.415-4.771-6.639-9.278-7.713-13.29-1.153-4.317-.612-10.019-.039-16.055.858-9.032,1.829-19.269-3.14-27.858-5.042-8.714-14.473-13-22.793-16.785-5.453-2.478-10.6-4.819-13.662-7.881s-5.4-8.209-7.881-13.661c-3.783-8.32-8.07-17.752-16.785-22.794-8.59-4.97-18.827-4-27.859-3.14-6.035.573-11.736,1.116-16.053-.039-4.014-1.074-8.52-4.3-13.292-7.713C202.811,79.091,194.3,73,184,73s-18.811,6.091-26.319,11.465c-4.771,3.415-9.278,6.639-13.29,7.713-4.319,1.152-10.02.611-16.055.039-9.033-.859-19.268-1.829-27.858,3.14-8.714,5.042-13,14.473-16.785,22.793-2.478,5.453-4.819,10.6-7.881,13.662s-8.209,5.4-13.661,7.881c-8.32,3.783-17.752,8.07-22.794,16.785-4.969,8.589-4,18.827-3.14,27.859.573,6.036,1.114,11.737-.039,16.053-1.074,4.014-4.3,8.52-7.713,13.292C23.091,221.189,17,229.7,17,240S23.091,258.811,28.465,266.319Z"/><path d="M184,128A112,112,0,1,0,296,240,112.127,112.127,0,0,0,184,128Zm0,208a96,96,0,1,1,96-96A96.108,96.108,0,0,1,184,336Z"/><path d="M184,216a24,24,0,1,0-24-24A24.028,24.028,0,0,0,184,216Zm0-32a8,8,0,1,1-8,8A8.009,8.009,0,0,1,184,184Z"/><path d="M136,216a24,24,0,1,0,24,24A24.028,24.028,0,0,0,136,216Zm0,32a8,8,0,1,1,8-8A8.009,8.009,0,0,1,136,248Z"/><path d="M184,264a24,24,0,1,0,24,24A24.028,24.028,0,0,0,184,264Zm0,32a8,8,0,1,1,8-8A8.009,8.009,0,0,1,184,296Z"/><path d="M232,216a24,24,0,1,0,24,24A24.028,24.028,0,0,0,232,216Zm0,32a8,8,0,1,1,8-8A8.009,8.009,0,0,1,232,248Z"/></g></svg>
